<svg xmlns="http://www.w3.org/2000/svg" viewBox="0 0 720 420" font-family="sans-serif"><style>
  text{font:13px -apple-system,Segoe UI,Roboto,sans-serif;fill:#1f2937}
  .ax{stroke:#9ca3af;stroke-width:1}
  .grid{stroke:#e5e7eb;stroke-width:1}
  .ttl{font-size:15px;font-weight:600}
  @media (prefers-color-scheme:dark){
    text{fill:#e5e7eb}.ax{stroke:#6b7280}.grid{stroke:#374151}
    svg{background:#111827}
  }
</style><rect width="720" height="420" fill="white" fill-opacity="0" /><text class="ttl" x="70" y="18">Button latency distribution (end-to-end)</text><line class="ax" x1="70" y1="365" x2="560" y2="365"/><line class="ax" x1="70" y1="365" x2="70" y2="30"/><line class="grid" x1="70" y1="365.0" x2="560" y2="365.0"/><text x="62" y="369.0" text-anchor="end">0</text><line class="grid" x1="70" y1="298.0" x2="560" y2="298.0"/><text x="62" y="302.0" text-anchor="end">20</text><line class="grid" x1="70" y1="231.0" x2="560" y2="231.0"/><text x="62" y="235.0" text-anchor="end">40</text><line class="grid" x1="70" y1="164.0" x2="560" y2="164.0"/><text x="62" y="168.0" text-anchor="end">60</text><line class="grid" x1="70" y1="97.0" x2="560" y2="97.0"/><text x="62" y="101.0" text-anchor="end">80</text><line class="grid" x1="70" y1="30.0" x2="560" y2="30.0"/><text x="62" y="34.0" text-anchor="end">100</text><text x="315.0" y="408" text-anchor="middle"></text><text transform="translate(16,197.5) rotate(-90)" text-anchor="middle">ms</text><rect x="73.4" y="302.7" width="6.1" height="62.3" fill="#2563eb"/><rect x="80.2" y="302.3" width="6.1" height="62.7" fill="#dc2626"/><rect x="87.0" y="223.4" width="6.1" height="141.6" fill="#059669"/><text x="83.6" y="383" text-anchor="middle">minimal esp32c3</text><rect x="100.6" y="302.6" width="6.1" height="62.4" fill="#2563eb"/><rect x="107.4" y="140.1" width="6.1" height="224.9" fill="#dc2626"/><rect x="114.2" y="137.9" width="6.1" height="227.1" fill="#059669"/><text x="110.8" y="383" text-anchor="middle">minimal esp32dev</text><rect x="127.8" y="302.7" width="6.1" height="62.3" fill="#2563eb"/><rect x="134.7" y="302.0" width="6.1" height="63.0" fill="#dc2626"/><rect x="141.5" y="238.4" width="6.1" height="126.6" fill="#059669"/><text x="138.1" y="383" text-anchor="middle">minimal esp32s3</text><rect x="155.1" y="302.7" width="6.1" height="62.3" fill="#2563eb"/><rect x="161.9" y="302.2" width="6.1" height="62.8" fill="#dc2626"/><rect x="168.7" y="300.2" width="6.1" height="64.8" fill="#059669"/><text x="165.3" y="383" text-anchor="middle">reports esp32c3</text><rect x="182.3" y="302.6" width="6.1" height="62.4" fill="#2563eb"/><rect x="189.1" y="139.8" width="6.1" height="225.2" fill="#dc2626"/><rect x="195.9" y="138.8" width="6.1" height="226.2" fill="#059669"/><text x="192.5" y="383" text-anchor="middle">reports esp32dev</text><rect x="209.5" y="302.7" width="6.1" height="62.3" fill="#2563eb"/><rect x="216.3" y="302.0" width="6.1" height="63.0" fill="#dc2626"/><rect x="223.1" y="297.6" width="6.1" height="67.4" fill="#059669"/><text x="219.7" y="383" text-anchor="middle">reports esp32s3</text><rect x="236.7" y="302.7" width="6.1" height="62.3" fill="#2563eb"/><rect x="243.5" y="301.7" width="6.1" height="63.3" fill="#dc2626"/><rect x="250.3" y="139.5" width="6.1" height="225.5" fill="#059669"/><text x="246.9" y="383" text-anchor="middle">maxbtn esp32c3</text><rect x="264.0" y="302.7" width="6.1" height="62.3" fill="#2563eb"/><rect x="270.8" y="140.0" width="6.1" height="225.0" fill="#dc2626"/><rect x="277.6" y="136.1" width="6.1" height="228.9" fill="#059669"/><text x="274.2" y="383" text-anchor="middle">maxbtn esp32dev</text><rect x="291.2" y="302.7" width="6.1" height="62.3" fill="#2563eb"/><rect x="298.0" y="301.8" width="6.1" height="63.2" fill="#dc2626"/><rect x="304.8" y="266.6" width="6.1" height="98.4" fill="#059669"/><text x="301.4" y="383" text-anchor="middle">maxbtn esp32s3</text><rect x="318.4" y="302.7" width="6.1" height="62.3" fill="#2563eb"/><rect x="325.2" y="301.8" width="6.1" height="63.2" fill="#dc2626"/><rect x="332.0" y="139.4" width="6.1" height="225.6" fill="#059669"/><text x="328.6" y="383" text-anchor="middle">specials esp32c3</text><rect x="345.6" y="302.7" width="6.1" height="62.3" fill="#2563eb"/><rect x="352.4" y="140.7" width="6.1" height="224.3" fill="#dc2626"/><rect x="359.2" y="139.0" width="6.1" height="226.0" fill="#059669"/><text x="355.8" y="383" text-anchor="middle">specials esp32dev</text><rect x="372.8" y="302.7" width="6.1" height="62.3" fill="#2563eb"/><rect x="379.7" y="302.2" width="6.1" height="62.8" fill="#dc2626"/><rect x="386.5" y="297.4" width="6.1" height="67.6" fill="#059669"/><text x="383.1" y="383" text-anchor="middle">specials esp32s3</text><rect x="400.1" y="302.7" width="6.1" height="62.3" fill="#2563eb"/><rect x="406.9" y="300.8" width="6.1" height="64.2" fill="#dc2626"/><rect x="413.7" y="139.1" width="6.1" height="225.9" fill="#059669"/><text x="410.3" y="383" text-anchor="middle">default esp32c3</text><rect x="427.3" y="302.6" width="6.1" height="62.4" fill="#2563eb"/><rect x="434.1" y="301.8" width="6.1" height="63.2" fill="#dc2626"/><rect x="440.9" y="139.1" width="6.1" height="225.9" fill="#059669"/><text x="437.5" y="383" text-anchor="middle">signed-axes esp32c3</text><rect x="454.5" y="302.7" width="6.1" height="62.3" fill="#2563eb"/><rect x="461.3" y="139.5" width="6.1" height="225.5" fill="#dc2626"/><rect x="468.1" y="138.4" width="6.1" height="226.6" fill="#059669"/><text x="464.7" y="383" text-anchor="middle">default esp32dev</text><rect x="481.7" y="302.7" width="6.1" height="62.3" fill="#2563eb"/><rect x="488.5" y="141.0" width="6.1" height="224.0" fill="#dc2626"/><rect x="495.3" y="139.1" width="6.1" height="225.9" fill="#059669"/><text x="491.9" y="383" text-anchor="middle">signed-axes esp32dev</text><rect x="509.0" y="302.7" width="6.1" height="62.3" fill="#2563eb"/><rect x="515.8" y="302.0" width="6.1" height="63.0" fill="#dc2626"/><rect x="522.6" y="295.9" width="6.1" height="69.1" fill="#059669"/><text x="519.2" y="383" text-anchor="middle">default esp32s3</text><rect x="536.2" y="302.7" width="6.1" height="62.3" fill="#2563eb"/><rect x="543.0" y="302.2" width="6.1" height="62.8" fill="#dc2626"/><rect x="549.8" y="139.4" width="6.1" height="225.6" fill="#059669"/><text x="546.4" y="383" text-anchor="middle">signed-axes esp32s3</text><rect x="572" y="36" width="12" height="12" fill="#2563eb"/><text x="590" y="47">p50</text><rect x="572" y="56" width="12" height="12" fill="#dc2626"/><text x="590" y="67">p90</text><rect x="572" y="76" width="12" height="12" fill="#059669"/><text x="590" y="87">p99</text></svg>
