<svg xmlns="http://www.w3.org/2000/svg" viewBox="0 0 720 420" font-family="sans-serif"><style>
  text{font:13px -apple-system,Segoe UI,Roboto,sans-serif;fill:#1f2937}
  .ax{stroke:#9ca3af;stroke-width:1}
  .grid{stroke:#e5e7eb;stroke-width:1}
  .ttl{font-size:15px;font-weight:600}
  @media (prefers-color-scheme:dark){
    text{fill:#e5e7eb}.ax{stroke:#6b7280}.grid{stroke:#374151}
    svg{background:#111827}
  }
</style><rect width="720" height="420" fill="white" fill-opacity="0" /><text class="ttl" x="70" y="18">Fastest rate with 100% delivery</text><line class="ax" x1="70" y1="365" x2="560" y2="365"/><line class="ax" x1="70" y1="365" x2="70" y2="30"/><line class="grid" x1="70" y1="365.0" x2="560" y2="365.0"/><text x="62" y="369.0" text-anchor="end">0</text><line class="grid" x1="70" y1="298.0" x2="560" y2="298.0"/><text x="62" y="302.0" text-anchor="end">40</text><line class="grid" x1="70" y1="231.0" x2="560" y2="231.0"/><text x="62" y="235.0" text-anchor="end">80</text><line class="grid" x1="70" y1="164.0" x2="560" y2="164.0"/><text x="62" y="168.0" text-anchor="end">120</text><line class="grid" x1="70" y1="97.0" x2="560" y2="97.0"/><text x="62" y="101.0" text-anchor="end">160</text><line class="grid" x1="70" y1="30.0" x2="560" y2="30.0"/><text x="62" y="34.0" text-anchor="end">200</text><text x="315.0" y="408" text-anchor="middle"></text><text transform="translate(16,197.5) rotate(-90)" text-anchor="middle">Hz</text><rect x="76.8" y="260.1" width="12.3" height="104.9" fill="#2563eb"/><rect x="90.4" y="330.6" width="12.3" height="34.4" fill="#dc2626"/><text x="90.4" y="383" text-anchor="middle">minimal esp32c3</text><rect x="117.6" y="217.8" width="12.3" height="147.2" fill="#2563eb"/><rect x="131.2" y="330.6" width="12.3" height="34.4" fill="#dc2626"/><text x="131.2" y="383" text-anchor="middle">minimal esp32dev</text><rect x="158.5" y="149.3" width="12.3" height="215.7" fill="#2563eb"/><rect x="172.1" y="330.6" width="12.3" height="34.4" fill="#dc2626"/><text x="172.1" y="383" text-anchor="middle">minimal esp32s3</text><rect x="199.3" y="260.0" width="12.3" height="105.0" fill="#2563eb"/><rect x="212.9" y="330.6" width="12.3" height="34.4" fill="#dc2626"/><text x="212.9" y="383" text-anchor="middle">specials esp32c3</text><rect x="240.1" y="149.3" width="12.3" height="215.7" fill="#2563eb"/><rect x="253.8" y="330.6" width="12.3" height="34.4" fill="#dc2626"/><text x="253.8" y="383" text-anchor="middle">specials esp32dev</text><rect x="281.0" y="145.2" width="12.3" height="219.8" fill="#2563eb"/><rect x="294.6" y="330.6" width="12.3" height="34.4" fill="#dc2626"/><text x="294.6" y="383" text-anchor="middle">specials esp32s3</text><rect x="335.4" y="330.6" width="12.3" height="34.4" fill="#dc2626"/><text x="335.4" y="383" text-anchor="middle">maxbtn esp32c3</text><rect x="376.3" y="330.6" width="12.3" height="34.4" fill="#dc2626"/><text x="376.3" y="383" text-anchor="middle">maxbtn esp32dev</text><rect x="417.1" y="330.6" width="12.3" height="34.4" fill="#dc2626"/><text x="417.1" y="383" text-anchor="middle">maxbtn esp32s3</text><rect x="444.3" y="260.0" width="12.3" height="105.0" fill="#2563eb"/><rect x="457.9" y="330.6" width="12.3" height="34.4" fill="#dc2626"/><text x="457.9" y="383" text-anchor="middle">default esp32c3</text><rect x="485.1" y="194.8" width="12.3" height="170.2" fill="#2563eb"/><rect x="498.8" y="330.6" width="12.3" height="34.4" fill="#dc2626"/><text x="498.8" y="383" text-anchor="middle">default esp32dev</text><rect x="526.0" y="145.4" width="12.3" height="219.6" fill="#2563eb"/><rect x="539.6" y="330.6" width="12.3" height="34.4" fill="#dc2626"/><text x="539.6" y="383" text-anchor="middle">default esp32s3</text><rect x="572" y="36" width="12" height="12" fill="#2563eb"/><text x="590" y="47">measured clean Hz</text><rect x="572" y="56" width="12" height="12" fill="#dc2626"/><text x="590" y="67">conn-interval ceiling</text></svg>
